<?xml version="1.0" encoding="UTF-8"?>
<svg version="1.1" xmlns="http://www.w3.org/2000/svg" width="816" height="306">
<path d="M0 0 C0.64582031 0.60457031 1.29164063 1.20914063 1.95703125 1.83203125 C3.35155695 3.17430306 4.68427417 4.58040108 6 6 C6 6.66 6 7.32 6 8 C6.66 8 7.32 8 8 8 C28.01669581 33.00010555 38.78348125 65.05474287 35.25 97.125 C32.37993956 120.53720608 24.73587204 140.87333117 11 160 C10.47019531 160.76828125 9.94039062 161.5365625 9.39453125 162.328125 C8.93433594 162.87984375 8.47414063 163.4315625 8 164 C7.34 164 6.68 164 6 164 C5.77183594 164.55171875 5.54367187 165.1034375 5.30859375 165.671875 C0.28702209 174.60577563 -9.73321449 181.36809628 -18 187 C-18.66773438 187.50917969 -19.33546875 188.01835937 -20.0234375 188.54296875 C-31.38987646 196.9217864 -46.37187095 201.81010189 -60 205 C-60.68046387 205.17515137 -61.36092773 205.35030273 -62.06201172 205.53076172 C-69.97526158 207.38153432 -77.91781748 207.3964864 -86 207.375 C-86.73199615 207.37478851 -87.46399231 207.37457703 -88.21817017 207.37435913 C-99.59851286 207.34153137 -110.11753412 206.4865043 -121 203 C-122.2065625 202.63777344 -123.413125 202.27554688 -124.65625 201.90234375 C-138.03021237 197.53805293 -149.97477314 190.67908483 -161 182 C-161.94875 181.26652344 -162.8975 180.53304687 -163.875 179.77734375 C-169.56339771 175.27145263 -174.48799064 170.67419359 -179 165 C-180.17175781 163.58267578 -180.17175781 163.58267578 -181.3671875 162.13671875 C-199.47420399 139.83913195 -209.91550999 109.85757435 -208 81 C-207.92007813 79.72511719 -207.84015625 78.45023437 -207.7578125 77.13671875 C-205.81065749 52.4588867 -197.01813696 30.50631582 -182 11 C-181.36964844 10.13503906 -180.73929688 9.27007812 -180.08984375 8.37890625 C-176.23463136 3.17129589 -171.98458544 -0.89050529 -167 -5 C-165.70642578 -6.15822266 -165.70642578 -6.15822266 -164.38671875 -7.33984375 C-152.05488092 -18.16983394 -138.39892567 -24.64461536 -123 -30 C-122.17886719 -30.350625 -121.35773438 -30.70125 -120.51171875 -31.0625 C-78.83456558 -46.61851363 -30.64693785 -28.93541601 0 0 Z M-159 49 C-159.32077973 51.52438094 -159.32077973 51.52438094 -159.29052734 54.50024414 C-159.30328705 55.65226822 -159.31604675 56.8042923 -159.32919312 57.9912262 C-159.33141876 59.24322311 -159.33364441 60.49522003 -159.3359375 61.78515625 C-159.3425943 63.07054794 -159.3492511 64.35593964 -159.35610962 65.68028259 C-159.3681012 68.40822702 -159.37178907 71.13604473 -159.37060547 73.86401367 C-159.37040339 77.33851952 -159.39757922 80.81219708 -159.43214989 84.28650761 C-159.45993467 87.61940062 -159.45857349 90.95214921 -159.4609375 94.28515625 C-159.47530853 95.52298355 -159.48967957 96.76081085 -159.50448608 98.03614807 C-159.46320472 105.91295079 -158.80038093 112.86105634 -153.27914429 118.87416077 C-147.45761991 124.37610974 -141.37478741 125.30003331 -133.53198242 125.24291992 C-132.70365906 125.24481827 -131.87533569 125.24671661 -131.02191162 125.24867249 C-128.29966599 125.25236037 -125.57769042 125.24170812 -122.85546875 125.23046875 C-120.96071911 125.22927617 -119.06596887 125.22882395 -117.17121887 125.2290802 C-113.20956701 125.22751901 -109.24800598 125.2192541 -105.28637695 125.20581055 C-100.1972699 125.18876315 -95.10826202 125.18499805 -90.01912975 125.18575573 C-86.11164903 125.18548454 -82.20419017 125.1800126 -78.29671669 125.17275429 C-76.41914345 125.1695638 -74.54156773 125.16759933 -72.66399193 125.16686058 C-70.04963274 125.16470431 -67.43538117 125.15597737 -64.82104492 125.14526367 C-63.64835808 125.14594345 -63.64835808 125.14594345 -62.45198059 125.14663696 C-58.9327052 125.44831631 -58.9327052 125.44831631 -56 124 C-55.89030555 122.09916586 -55.85089213 120.19424189 -55.83886719 118.2902832 C-55.82925964 117.06843826 -55.8196521 115.84659332 -55.80975342 114.58772278 C-55.80490416 113.24207749 -55.80062564 111.89643005 -55.796875 110.55078125 C-55.79112388 109.1765289 -55.78536614 107.80227658 -55.77960205 106.42802429 C-55.76907937 103.54030991 -55.76324594 100.65262345 -55.75976562 97.76489258 C-55.75429732 94.0738872 -55.73031093 90.38325381 -55.70179367 86.69236469 C-55.68311305 83.85010221 -55.67795869 81.00792803 -55.67642975 78.16560936 C-55.6734117 76.80570646 -55.66541186 75.4458048 -55.65224457 74.0859623 C-55.63508295 72.1762796 -55.63892368 70.26644365 -55.64355469 68.35668945 C-55.63990906 67.27160599 -55.63626343 66.18652252 -55.63250732 65.06855774 C-56.49263447 57.88651037 -60.76649304 53.74358166 -66.0625 49.25 C-70.42116757 46.43795641 -75.19483648 46.85180352 -80.22509766 46.85473633 C-81.05152267 46.85137772 -81.87794769 46.8480191 -82.72941589 46.84455872 C-85.45764675 46.83506894 -88.18581617 46.83310694 -90.9140625 46.83203125 C-92.80927557 46.82881854 -94.70448839 46.82545446 -96.59970093 46.82194519 C-100.56907731 46.81595976 -104.53843193 46.81410482 -108.5078125 46.81469727 C-113.60363699 46.81479914 -118.69932294 46.80111837 -123.79511452 46.78392506 C-127.70692593 46.77283209 -131.61870348 46.77077718 -135.53052902 46.77130699 C-137.41007339 46.77012388 -139.28961856 46.76568371 -141.16914749 46.75797462 C-143.79076256 46.74822428 -146.41207186 46.75103242 -149.03369141 46.75708008 C-149.81502945 46.75146057 -150.59636749 46.74584106 -151.40138245 46.74005127 C-155.66220159 46.6114649 -155.66220159 46.6114649 -159 49 Z M-16 47 C-17.91680734 47.92912108 -17.91680734 47.92912108 -19.8359375 49.421875 C-20.57070312 49.95296875 -21.30546875 50.4840625 -22.0625 51.03125 C-22.825625 51.5984375 -23.58875 52.165625 -24.375 52.75 C-25.8817126 53.85046586 -27.38949808 54.94946451 -28.8984375 56.046875 C-29.60581055 56.56572266 -30.31318359 57.08457031 -31.04199219 57.61914062 C-33 59 -33 59 -36.0390625 60.765625 C-36.68617188 61.17296875 -37.33328125 61.5803125 -38 62 C-38 62.66 -38 63.32 -38 64 C-39.051875 64.3403125 -39.051875 64.3403125 -40.125 64.6875 C-45.27697384 66.97351446 -45.27697384 66.97351446 -49 71 C-49.91141082 75.23900267 -50.07297769 79.37067883 -50.05688477 83.70019531 C-50.06246324 85.73658114 -50.15828456 87.75549067 -50.25976562 89.7890625 C-50.31255344 97.4162774 -50.31255344 97.4162774 -46.62988281 103.85351562 C-43.8500146 106.14762672 -41.06478868 108.10862426 -38 110 C-36.54026668 110.99795528 -35.08161699 111.99750159 -33.625 113 C-32.9134375 113.45503906 -32.201875 113.91007812 -31.46875 114.37890625 C-29.49001239 115.67823553 -27.5726471 117.01510911 -25.65625 118.40234375 C-25.07278809 118.82064453 -24.48932617 119.23894531 -23.88818359 119.66992188 C-22.72914535 120.50317119 -21.57560488 121.34413144 -20.42822266 122.19335938 C-18.65984291 123.4895435 -18.65984291 123.4895435 -16 125 C-15.01 124.67 -14.02 124.34 -13 124 C-13 98.92 -13 73.84 -13 48 C-13.99 47.67 -14.98 47.34 -16 47 Z " fill="#5480C1" transform="translate(252,67)"/>
<path d="M0 0 C5.81626928 0.65720557 10.88265254 2.12929289 16 5 C18.81573366 6.29440999 18.81573366 6.29440999 20.8046875 5.29296875 C21.48789062 4.92816406 22.17109375 4.56335938 22.875 4.1875 C32.56972789 -0.32204117 42.76125147 -0.96937714 53 2 C59.14116276 4.39739876 64.16374281 7.54555259 69 12 C72.74992206 10.23880065 75.94824019 7.96148068 79.29296875 5.53515625 C86.09821315 1.6759051 92.74611343 0.46351421 100.5 0.5625 C101.33515137 0.57007324 102.17030273 0.57764648 103.03076172 0.58544922 C109.1427066 0.74947203 113.83142379 1.58223967 119 5 C119.81082031 5.48210937 120.62164063 5.96421875 121.45703125 6.4609375 C128.20969604 10.6507799 128.20969604 10.6507799 130 15 C130.66 15 131.32 15 132 15 C137.68862233 24.71337883 141.13646876 33.03855951 141.11352539 44.46435547 C141.11344986 45.72520966 141.11337433 46.98606384 141.11329651 48.28512573 C141.10819109 49.6458134 141.10297511 51.00650065 141.09765625 52.3671875 C141.09578912 53.77108713 141.09436661 55.17498742 141.09336853 56.57888794 C141.08956658 60.25807522 141.07975633 63.93722248 141.06866455 67.61639404 C141.05840031 71.37706969 141.0538602 75.13775186 141.04882812 78.8984375 C141.03813179 86.26564317 141.02108352 93.63281596 141 101 C139.2437913 101.05085001 137.48715573 101.08709497 135.73046875 101.1171875 C134.75231201 101.13894043 133.77415527 101.16069336 132.76635742 101.18310547 C128.71478179 100.91493128 126.95596354 99.71629082 124 97 C124 96.34 124 95.68 124 95 C123.34 95 122.68 95 122 95 C119.46424794 87.87488153 118.55950832 81.52580858 118.55859375 73.98828125 C118.53878197 72.46958687 118.53878197 72.46958687 118.51856995 70.92021179 C118.47803149 67.71761234 118.45609984 64.51529625 118.4375 61.3125 C118.41362542 58.09907842 118.38540711 54.88592007 118.34571838 51.6726532 C118.32157067 49.68268517 118.30654252 47.69257847 118.30210876 45.70246887 C118.22855517 39.1449277 118.05540896 33.5121665 113.75 28.25 C108.52260109 23.97303725 104.32021769 22.3689017 97.6015625 22.58203125 C92.0289842 23.47732536 87.51021391 26.11223261 84 30.5 C82.16394064 35.0901484 81.86362597 39.43580607 81.79467773 44.35083008 C81.77473251 45.6117598 81.75478729 46.87268951 81.73423767 48.17182922 C81.71725732 49.53772867 81.70037837 50.90362938 81.68359375 52.26953125 C81.66300526 53.67486659 81.6420083 55.080196 81.62062073 56.48551941 C81.56559565 60.17287373 81.51610067 63.86028212 81.46777344 67.54772949 C81.41741496 71.31507136 81.361804 75.08233534 81.30664062 78.84960938 C81.19929859 86.23300683 81.09780112 93.61646934 81 101 C77.49068908 102.75465546 73.73742475 101.80042655 70 101 C64.98236451 98.53851844 61.8265697 95.29826178 60 90 C58.40301766 79.91677479 58.9379673 69.52281452 59.09594727 59.34521484 C59.98205594 41.98276778 59.98205594 41.98276778 53 27 C48.19055436 23.45971362 43.39852948 22.2961128 37.46484375 22.54296875 C32.4038372 23.48138042 28.75726943 26.30130621 25.125 29.8125 C21.6701634 36.53023784 21.70739288 43.664341 21.69140625 51.03515625 C21.66625946 53.16471643 21.64086125 55.29427366 21.61523438 57.42382812 C21.58646589 60.75039993 21.56241886 64.07692071 21.54370117 67.40356445 C21.52200605 70.63518399 21.48258215 73.8662347 21.44140625 77.09765625 C21.44129044 78.08637222 21.44117462 79.0750882 21.4410553 80.09376526 C21.34400045 86.8943828 20.56173601 91.94244412 16.0625 97.3125 C12.41968239 100.29298713 9.43015679 101.25551394 4.75 101.625 C3.41195312 101.73714844 3.41195312 101.73714844 2.046875 101.8515625 C1.37140625 101.90054688 0.6959375 101.94953125 0 102 C-0.78847843 99.21151662 -1.12544731 96.73769869 -1.12698364 93.84321594 C-1.12980347 93.0229895 -1.13262329 92.20276306 -1.13552856 91.35768127 C-1.13249222 90.02107704 -1.13249222 90.02107704 -1.12939453 88.6574707 C-1.13114685 87.71239655 -1.13289917 86.76732239 -1.13470459 85.79360962 C-1.13910478 82.67098147 -1.13619225 79.54840997 -1.1328125 76.42578125 C-1.1334859 74.25912973 -1.13445622 72.09247829 -1.13571167 69.92582703 C-1.13718602 65.3873116 -1.13504188 60.84881587 -1.13037109 56.31030273 C-1.12466376 50.47904304 -1.12796082 44.64782926 -1.13394356 38.81657124 C-1.13754756 34.34463654 -1.13641151 29.87271283 -1.13381577 25.40077782 C-1.13314658 23.24967633 -1.13397463 21.09857386 -1.13629532 18.94747353 C-1.13882031 15.94973711 -1.1349839 12.95207644 -1.12939453 9.9543457 C-1.13141876 9.05720352 -1.13344299 8.16006134 -1.13552856 7.23573303 C-1.1142645 1.1142645 -1.1142645 1.1142645 0 0 Z " fill="#537FBF" transform="translate(631,102)"/>
<path d="M0 0 C1.05877098 -0.00262848 1.05877098 -0.00262848 2.13893127 -0.00531006 C4.48790909 -0.00973363 6.83681233 -0.00678602 9.18579102 -0.00341797 C10.81950393 -0.00409154 12.45321675 -0.00506201 14.08692932 -0.00631714 C17.52280627 -0.00779534 20.95865731 -0.00563816 24.39453125 -0.00097656 C28.77553885 0.00468039 33.15648464 0.00146835 37.53748989 -0.00454903 C40.91862949 -0.00818605 44.29975479 -0.00700101 47.68089485 -0.00442123 C49.2942512 -0.00375851 50.90760889 -0.00455726 52.52096367 -0.00690079 C77.02497119 -0.0346466 77.02497119 -0.0346466 83.25219727 5.12939453 C84.11844727 5.81001953 84.11844727 5.81001953 85.00219727 6.50439453 C88.0575429 10.47634385 88.66920285 15.17115408 88.59996033 20.08459473 C87.98547384 23.69769226 85.57161247 25.85588893 83.01977539 28.27001953 C82.46382187 28.82714127 81.90786835 29.384263 81.33506775 29.95826721 C79.50285496 31.78493085 77.64401569 33.58165998 75.78344727 35.37939453 C74.50375438 36.64415782 73.22582295 37.91070563 71.94958496 39.17895508 C68.59348575 42.50457808 65.21406127 45.80547409 61.8291626 49.10174561 C58.37629889 52.47262295 54.94610416 55.86639681 51.51391602 59.25830078 C44.78196856 65.90457176 38.02515059 72.52493404 31.25219727 79.12939453 C31.85052872 79.13304016 32.44886017 79.13668579 33.06532288 79.14044189 C39.31151713 79.18235993 45.55698295 79.25177066 51.80273438 79.33691406 C54.13143619 79.36508188 56.46023286 79.38631717 58.7890625 79.40039062 C62.14315206 79.42187743 65.49610604 79.46855962 68.84985352 79.52001953 C69.8855397 79.52124817 70.92122589 79.52247681 71.98829651 79.52374268 C79.12111769 79.66719107 83.57153576 80.82835282 88.99438477 85.69189453 C93.24618825 91.08728654 93.3826661 94.34501534 93.25219727 101.12939453 C89.60367693 102.34556798 86.27562303 102.24847443 82.47949219 102.21459961 C81.68889908 102.21141724 80.89830597 102.20823486 80.08375549 102.20495605 C77.46664864 102.19235659 74.8497051 102.17147768 72.23266602 102.14892578 C70.89102103 102.13849023 70.89102103 102.13849023 69.52227211 102.12784386 C64.7885378 102.09044415 60.05491566 102.04643176 55.32128906 101.99731445 C50.43552459 101.94797663 45.54992314 101.92177966 40.66396618 101.90088367 C36.90366348 101.880494 33.14368047 101.84260952 29.38356972 101.80002403 C27.58274745 101.78270324 25.78184879 101.77199343 23.98094749 101.76807594 C21.45774573 101.76097914 18.93598831 101.72902536 16.41308594 101.69116211 C15.30237228 101.69635109 15.30237228 101.69635109 14.16921997 101.7016449 C9.07298881 101.58884651 6.19452426 100.30939171 2.25219727 97.12939453 C-2.00575558 92.41112246 -3.19300482 88.65937659 -3.10215759 82.4154377 C-2.51257278 78.61185973 -0.20475514 76.40134886 2.48461914 73.87524414 C3.04057266 73.31797638 3.59652618 72.76070862 4.16932678 72.18655396 C5.99934023 70.36277581 7.85904627 68.57290054 9.72094727 66.78173828 C11.00085764 65.51862656 12.27878592 64.2535035 13.55480957 62.98646545 C16.90877307 59.66676587 20.28887634 56.37498603 23.67523193 53.08837891 C27.12991195 49.72598206 30.55906264 46.33776654 33.99047852 42.95166016 C40.71970586 36.31877991 47.47684307 29.7151271 54.25219727 23.12939453 C53.66639389 23.12352829 53.08059052 23.11766205 52.47703552 23.11161804 C46.36067957 23.04751058 40.24484136 22.96304652 34.12890625 22.86694336 C31.8487024 22.83376087 29.56841774 22.80570829 27.28808594 22.78295898 C24.00363845 22.74929071 20.71992712 22.69696727 17.43579102 22.64111328 C16.42197861 22.63472336 15.4081662 22.62833344 14.3636322 22.62174988 C7.98567453 22.4903073 2.58001189 21.9850707 -2.45483398 17.66455078 C-6.97768475 11.63941037 -8.11576922 8.6113797 -7.74780273 1.12939453 C-5.8519389 -0.7664693 -2.51514455 0.0015606 0 0 Z " fill="#5480C0" transform="translate(334.747802734375,101.87060546875)"/>
<path d="M0 0 C0 0.66 0 1.32 0 2 C0.99 2.33 1.98 2.66 3 3 C13.1412147 14.85886823 17.21448466 28.45773436 16.22509766 43.85791016 C14.72071744 58.17399694 7.5258074 69.78386283 -3.375 79 C-16.04759374 88.09711193 -29.92643871 89.27096719 -45 88 C-55.25925226 86.10726886 -65.15241647 79.74858136 -72 72 C-72.55429687 71.38769531 -73.10859375 70.77539062 -73.6796875 70.14453125 C-82.94461046 59.22941815 -85.93737447 46.04357385 -85 32 C-83.71733893 24.0010428 -81.06047745 16.98694768 -77 10 C-76.64292969 9.37480469 -76.28585937 8.74960938 -75.91796875 8.10546875 C-69.13598176 -2.51085718 -56.9920015 -9.240938 -45 -12 C-28.151256 -15.04625292 -13.27470064 -10.70316177 0 0 Z M-59.31640625 21.62109375 C-63.40763688 27.91645601 -64.63530602 35.78986409 -63.4375 43.125 C-61.35075675 51.44555854 -57.29335212 58.32258704 -50 63 C-42.37308876 67.18502309 -34.86050296 68.4672963 -26.36328125 66.33984375 C-18.27530128 63.47870535 -12.24624624 58.78074324 -8.0625 51.25 C-4.44654105 43.16005794 -4.11439992 35.55511362 -7.0625 27.2109375 C-10.22698747 19.74802121 -16.22563372 13.40693055 -23.6875 10.0625 C-37.66631286 5.6597243 -50.33964916 10.56663027 -59.31640625 21.62109375 Z " fill="#5480C0" transform="translate(611,115)"/>
<path d="M0 0 C11.95082892 7.29095664 21.14461558 16.78739526 24.96875 30.46484375 C28.31619762 44.98594756 27.00878191 58.45344794 19.6875 71.5625 C16.64327177 76.35277811 13.34957499 80.35735368 9 84 C8.48050781 84.44730469 7.96101563 84.89460938 7.42578125 85.35546875 C-2.92751504 93.50273581 -16.30235371 96.46400221 -29.265625 95.84375 C-43.20096067 93.94679331 -54.90215161 87.49408877 -63.8125 76.625 C-72.95501622 64.07560273 -75.3969024 51.29804626 -74 36 C-71.51606995 22.28632631 -64.22165795 11.18146409 -53 3 C-49.10918408 0.71359367 -45.16500976 -1.26457927 -41 -3 C-40.10925781 -3.37382813 -39.21851563 -3.74765625 -38.30078125 -4.1328125 C-25.96018185 -7.37495814 -11.10357724 -6.33611333 0 0 Z M-47.0625 26.25 C-51.83240128 33.17217381 -53.79358793 40.66732675 -53 49 C-51.40801968 56.40270848 -48.04252546 64.02244092 -41.8203125 68.60546875 C-39.58908424 69.88635905 -37.36003562 70.97874822 -35 72 C-34.05125 72.433125 -33.1025 72.86625 -32.125 73.3125 C-23.31592865 75.2504957 -15.99241311 74.08567386 -8 70 C-7.01 69.34 -6.02 68.68 -5 68 C-5 67.34 -5 66.68 -5 66 C-4.01 65.67 -3.02 65.34 -2 65 C-0.34867717 62.82299025 -0.34867717 62.82299025 1.125 60.1875 C1.64320313 59.31480469 2.16140625 58.44210938 2.6953125 57.54296875 C6.02232162 51.0582893 6.0493446 43.23935217 4.31640625 36.23828125 C1.28460182 28.02347507 -2.88360602 22.90749071 -10.5 18.5625 C-23.48402719 12.60077464 -37.70372619 15.22700909 -47.0625 26.25 Z " fill="#5480C0" transform="translate(496,108)"/>
<path d="M0 0 C1.5922771 0.00281717 3.18455642 0.0170434 4.77667236 0.03987122 C6.07938583 0.04683517 6.07938583 0.04683517 7.40841675 0.05393982 C10.29079726 0.07237854 13.17276627 0.10590671 16.05499268 0.14070129 C18.05557845 0.1592553 20.05616862 0.17734094 22.0567627 0.19497681 C26.25679819 0.23453941 30.45666083 0.28191727 34.65655518 0.33430481 C40.03441856 0.40046517 45.41219454 0.44417956 50.79032516 0.48156261 C54.92546933 0.51334714 59.06038158 0.55874005 63.19535065 0.60804176 C65.17760009 0.62973258 67.15990541 0.64682595 69.1422348 0.65921593 C71.91919267 0.67829711 74.69530002 0.71610839 77.47198486 0.75862122 C78.28883759 0.76032822 79.10569031 0.76203522 79.94729614 0.76379395 C84.82350253 0.86244236 88.09965536 1.64360709 92.38311768 4.22273254 C92.38311768 5.21273254 92.38311768 6.20273254 92.38311768 7.22273254 C87.38311768 5.22273254 87.38311768 5.22273254 85.22949219 4.16760254 C81.48252953 2.92377725 77.9306018 2.95152917 74.02862549 2.97981262 C73.20044815 2.97791428 72.37227081 2.97601593 71.51899719 2.97406006 C68.791315 2.97036575 66.06390105 2.98103437 63.33624268 2.99226379 C61.44006379 2.9934561 59.54388432 2.99390865 57.64770508 2.99365234 C53.68007697 2.9952147 49.71253942 3.00348788 45.74493408 3.016922 C40.64795129 3.03395784 35.55106753 3.03773489 30.4540596 3.03697681 C26.54228767 3.03724803 22.63053758 3.04272063 18.71877289 3.04997826 C16.83840856 3.0531692 14.95804175 3.05513332 13.07767487 3.05587196 C10.45841707 3.05802841 7.83926665 3.06675609 5.22003174 3.07746887 C4.04498833 3.07678909 4.04498833 3.07678909 2.84620667 3.07609558 C-0.67891184 2.77340535 -0.67891184 2.77340535 -3.61688232 4.22273254 C-3.73162559 6.01560654 -3.77652526 7.81299316 -3.79388428 9.60945129 C-3.80671951 10.7615509 -3.81955475 11.91365051 -3.83277893 13.10066223 C-3.84016586 14.35782043 -3.8475528 15.61497864 -3.85516357 16.91023254 C-3.86323532 18.19703918 -3.87130707 19.48384583 -3.87962341 20.80964661 C-3.89467377 23.543532 -3.90449719 26.27739124 -3.91204834 29.01130676 C-3.92305081 32.49363988 -3.95736707 35.97532295 -3.99722004 39.45742798 C-4.02986869 42.79583515 -4.03418316 46.13417816 -4.04266357 49.47273254 C-4.06017166 50.7136969 -4.07767975 51.95466125 -4.09571838 53.23323059 C-4.07443579 61.79784459 -3.04359803 68.96859742 3.13311768 75.28523254 C4.24686768 76.24429504 4.24686768 76.24429504 5.38311768 77.22273254 C1.18888201 76.4783011 -0.61695146 74.78087091 -3.19909668 71.49127197 C-7.88710307 63.99018929 -6.85319605 53.45982473 -6.66375732 44.96882629 C-6.63333344 43.13482018 -6.63333344 43.13482018 -6.60229492 41.26376343 C-6.55701284 38.70140222 -6.5062987 36.13913171 -6.45037842 33.57698059 C-6.36646508 29.64065968 -6.30501008 25.70441613 -6.24578857 21.76765442 C-6.19894335 19.27218635 -6.15081271 16.77674201 -6.10125732 14.28132629 C-6.08343201 13.10122482 -6.06560669 11.92112335 -6.04724121 10.70526123 C-6.02091614 9.61975479 -5.99459106 8.53424835 -5.96746826 7.41584778 C-5.94811218 6.45863327 -5.9287561 5.50141876 -5.90881348 4.51519775 C-5.3888547 0.43208636 -3.94764617 0.24310143 0 0 Z " fill="#597BAB" transform="translate(97.61688232421875,111.77726745605469)"/>
<path d="M0 0 C9.12177122 4.36162362 9.12177122 4.36162362 12 7 C12 7.66 12 8.32 12 9 C12.99 9.33 13.98 9.66 15 10 C25.12501543 21.83992523 29.21913551 35.44983497 28.24707031 50.83154297 C27.21408467 59.89772727 24.03508731 69.10275736 18 76 C17.505 75.01 17.505 75.01 17 74 C17.92455965 72.11663774 18.85438699 70.23570387 19.80859375 68.3671875 C20.20175781 67.58601563 20.59492187 66.80484375 21 66 C21.38285156 65.23945313 21.76570312 64.47890625 22.16015625 63.6953125 C24.82462849 57.56416132 25.36217816 51.97375749 25.375 45.375 C25.37661133 44.58762451 25.37822266 43.80024902 25.37988281 42.98901367 C25.15300304 30.90514479 21.38258454 19.98134058 13 11 C12.34 10.67 11.68 10.34 11 10 C11 9.34 11 8.68 11 8 C10.484375 7.7525 9.96875 7.505 9.4375 7.25 C6.22815849 5.60418384 3.12414336 3.8023904 0 2 C0 1.34 0 0.68 0 0 Z " fill="#5C7AAA" transform="translate(599,108)"/>
<path d="M0 0 C-1.32 0.33 -2.64 0.66 -4 1 C-4 1.66 -4 2.32 -4 3 C-5.63272461 3.91249781 -7.27679852 4.80472151 -8.92578125 5.6875 C-12.36386288 8.0342139 -13.77360907 9.23708421 -14.97021484 13.26953125 C-15.25191669 16.5255102 -15.36109359 19.69475897 -15.2487793 22.9609375 C-15.18746008 25.00132826 -15.2278457 27.02217775 -15.27929688 29.0625 C-15.28802828 36.33038753 -15.28802828 36.33038753 -11.91259766 42.49609375 C-9.67975173 44.23923048 -7.50924221 45.69276524 -5 47 C-6.485 47.495 -6.485 47.495 -8 48 C-11.65958565 45.77023367 -14.45540755 43.46818527 -17 40 C-18.11793761 34.63154747 -17.85649266 29.43239268 -17.5625 24 C-17.51728564 22.543093 -17.47623319 21.08605057 -17.43945312 19.62890625 C-17.34096688 16.0830923 -17.18609172 12.54242283 -17 9 C-16.01 8.67 -15.02 8.34 -14 8 C-14 7.34 -14 6.68 -14 6 C-13.01 5.67 -12.02 5.34 -11 5 C-11.33 4.34 -11.66 3.68 -12 3 C-11.195625 2.87625 -10.39125 2.7525 -9.5625 2.625 C-8.716875 2.41875 -7.87125 2.2125 -7 2 C-6.67 1.34 -6.34 0.68 -6 0 C-3 -1 -3 -1 0 0 Z " fill="#5474A9" transform="translate(218,128)"/>
<path d="M0 0 C0.66 0.99 1.32 1.98 2 3 C1.01 3.33 0.02 3.66 -1 4 C-1 4.99 -1 5.98 -1 7 C-1.66 7 -2.32 7 -3 7 C-3.185625 8.5159375 -3.185625 8.5159375 -3.375 10.0625 C-4 14 -4 14 -5.015625 17.1015625 C-6.38324359 21.79580404 -6.38280484 26.45224991 -6.375 31.3125 C-6.37483887 32.24586182 -6.37467773 33.17922363 -6.37451172 34.14086914 C-6.26263246 40.86716803 -5.2274581 46.05014403 -2 52 C-1.3127513 53.99302124 -0.63484067 55.98967123 0 58 C-6.00817218 53.27929329 -8.06916319 45.29453846 -9 38 C-9.87468571 23.87597661 -8.37721424 11.86772017 0 0 Z " fill="#577CB1" transform="translate(431,123)"/>
<path d="M0 0 C0.33 0 0.66 0 1 0 C1.46719866 18.71390172 1.46719866 18.71390172 -5 27 C-5.66 27 -6.32 27 -7 27 C-7 27.66 -7 28.32 -7 29 C-7.66 29 -8.32 29 -9 29 C-9.33 30.32 -9.66 31.64 -10 33 C-10.66 32.67 -11.32 32.34 -12 32 C-12.53625 32.495 -13.0725 32.99 -13.625 33.5 C-16.59358445 35.37489544 -18.55312427 35.23501425 -22 35 C-20.02433812 33.02433812 -18.47662906 32.10420928 -16 30.875 C-15.29875 30.52179688 -14.5975 30.16859375 -13.875 29.8046875 C-12 29 -12 29 -10 29 C-10 28.34 -10 27.68 -10 27 C-9.2575 26.34 -8.515 25.68 -7.75 25 C-0.98440774 18.40739163 -0.30753454 8.9492551 0 0 Z " fill="#5B7AAC" transform="translate(501,147)"/>
<path d="M0 0 C0.99 0.33 1.98 0.66 3 1 C-4.29065717 18.19250716 -4.29065717 18.19250716 -12.25 22.9375 C-15 24 -15 24 -17 24 C-17.33 24.66 -17.66 25.32 -18 26 C-23.61 26 -29.22 26 -35 26 C-35 25.67 -35 25.34 -35 25 C-33.9378125 24.90203125 -32.875625 24.8040625 -31.78125 24.703125 C-20.80258772 23.58929122 -12.89380491 22.26947436 -5.54296875 13.37109375 C-2.85223278 9.23621595 -1.39259275 4.70540657 0 0 Z " fill="#5B7BAD" transform="translate(605,157)"/>
<path d="M0 0 C0.33 0.99 0.66 1.98 1 3 C-1 6 -1 6 -4 7 C-4.639375 7.969375 -5.27875 8.93875 -5.9375 9.9375 C-8.04454534 13.06614308 -8.78773318 13.49424993 -12 15 C-13.97303962 17.25490242 -15.65938603 19.31877206 -17 22 C-18.2065625 22.680625 -18.2065625 22.680625 -19.4375 23.375 C-22.12407748 25.07868328 -22.89489103 26.08653091 -24 29 C-24.328125 26.85864258 -24.328125 26.85864258 -24 24 C-22.30741349 21.87132487 -20.70314541 20.11885175 -18.75 18.26171875 C-18.21729492 17.73608841 -17.68458984 17.21045807 -17.13574219 16.66889954 C-15.43521891 14.99631672 -13.71813187 13.34197067 -12 11.6875 C-10.84261364 10.55519682 -9.68634928 9.42174558 -8.53125 8.28710938 C-5.70033659 5.5112605 -2.85444246 2.75163952 0 0 Z " fill="#5B7CAD" transform="translate(356,158)"/>
<path d="M0 0 C0.33 0.99 0.66 1.98 1 3 C0.34 3.66 -0.32 4.32 -1 5 C-1.33 5.66 -1.66 6.32 -2 7 C-2.99 7.33 -3.98 7.66 -5 8 C-6.55434324 9.52956409 -6.55434324 9.52956409 -8 11.375 C-11.87407904 16.11671132 -11.87407904 16.11671132 -14 18 C-14.66 18 -15.32 18 -16 18 C-16.268125 18.804375 -16.53625 19.60875 -16.8125 20.4375 C-17.204375 21.283125 -17.59625 22.12875 -18 23 C-18.99 23.33 -19.98 23.66 -21 24 C-21.33 24.66 -21.66 25.32 -22 26 C-22.99 25.67 -23.98 25.34 -25 25 C-16.75 16.75 -8.5 8.5 0 0 Z " fill="#5C7DAC" transform="translate(389,125)"/>
<path d="M0 0 C0.68320312 0.3609375 1.36640625 0.721875 2.0703125 1.09375 C-1.90736388 2.33086749 -4.01566968 1.4261816 -7.9296875 0.09375 C-8.9196875 0.42375 -9.9096875 0.75375 -10.9296875 1.09375 C-10.9296875 0.43375 -10.9296875 -0.22625 -10.9296875 -0.90625 C-20.18798507 -2.35853197 -29.69106893 -2.62506276 -38.9296875 -0.90625 C-28.52502045 -7.8426947 -10.75192531 -4.94973544 0 0 Z " fill="#5A7AAE" transform="translate(493.9296875,106.90625)"/>
<path d="M0 0 C0 0.99 0 1.98 0 3 C-3.06489825 5.9882758 -5.85327639 8.01548278 -9.75 9.75 C-15.3612725 12.35989418 -19.5783316 16.75954752 -24 21 C-24.99 20.67 -25.98 20.34 -27 20 C-18.29115296 12.7959905 -9.69740283 5.82875808 0 0 Z " fill="#5C7BAB" transform="translate(107,46)"/>
<path d="M0 0 C0.33 0 0.66 0 1 0 C4.59658383 11.96463553 6.40560352 23.49389155 6 36 C4.4375 34.9375 4.4375 34.9375 3 33 C3.29737554 30.66181195 3.63770911 28.32901285 4 26 C3.76058114 22.99700346 3.20557622 20.07880884 2.625 17.125 C2.48578125 16.35414063 2.3465625 15.58328125 2.203125 14.7890625 C1.77954874 11.08663703 1.77954874 11.08663703 0 8 C-0.14115161 5.32941149 -0.04247107 2.67567762 0 0 Z " fill="#5C7AAB" transform="translate(281,115)"/>
<path d="M0 0 C0.33 0 0.66 0 1 0 C1.60426657 13.22672373 0.73057658 24.32929529 -8 35 C-8.33 34.34 -8.66 33.68 -9 33 C-8.07775007 31.12134273 -7.14871735 29.2457398 -6.1875 27.38671875 C-1.68904372 18.34541353 -0.29409153 10.07263474 0 0 Z " fill="#5476AF" transform="translate(625,149)"/>
<path d="M0 0 C1.21823184 3.65469551 0.6247906 5.19687127 -0.375 8.875 C-1.36637425 12.57180678 -2.29197298 16.2377388 -3 20 C-3.66 20 -4.32 20 -5 20 C-4.67 20.99 -4.34 21.98 -4 23 C-5.9375 25.6875 -5.9375 25.6875 -8 28 C-6.68457108 18.55639836 -4.29330632 8.58661264 0 0 Z " fill="#5D7DB1" transform="translate(54,105)"/>
<path d="M0 0 C0.66 0.33 1.32 0.66 2 1 C0.71937515 2.7074998 -0.61767557 4.37373596 -2 6 C-2.66 6 -3.32 6 -4 6 C-4.2475 6.515625 -4.495 7.03125 -4.75 7.5625 C-9.78318584 17.37721239 -9.78318584 17.37721239 -15 21 C-13.50427975 16.48748807 -10.97750739 13.05977125 -8.0625 9.375 C-7.39831055 8.51648438 -7.39831055 8.51648438 -6.72070312 7.640625 C-4.61489212 4.94167199 -2.50896606 2.33507732 0 0 Z " fill="#5F7DA9" transform="translate(77,70)"/>
<path d="M0 0 C-2.95384268 2.95384268 -6.48389029 3.81397705 -10.375 5.1875 C-11.14328125 5.47302734 -11.9115625 5.75855469 -12.703125 6.05273438 C-13.44820312 6.31763672 -14.19328125 6.58253906 -14.9609375 6.85546875 C-15.63946777 7.09934326 -16.31799805 7.34321777 -17.01708984 7.59448242 C-19.32524229 8.06651409 -20.78199761 7.72539027 -23 7 C-23 6.67 -23 6.34 -23 6 C-18.34201396 4.79534844 -13.76350585 3.71452588 -9 3 C-9 2.34 -9 1.68 -9 1 C-5.92677456 0.08941469 -3.19902639 -0.08886184 0 0 Z " fill="#597DB0" transform="translate(216,263)"/>
<path d="M0 0 C1.65 0 3.3 0 5 0 C5 0.66 5 1.32 5 2 C7.65228812 3.07525194 10.28368454 4.09456151 13 5 C14.33333333 6.33333333 15.66666667 7.66666667 17 9 C16.67 9.99 16.34 10.98 16 12 C15.5153125 11.52949219 15.030625 11.05898437 14.53125 10.57421875 C9.88907173 6.26234932 6.06462441 3.8410467 0 2 C0 1.34 0 0.68 0 0 Z " fill="#5B78A9" transform="translate(583,123)"/>
<path d="M0 0 C0 0.99 0 1.98 0 3 C0.99 3.33 1.98 3.66 3 4 C2.67 4.99 2.34 5.98 2 7 C1.195625 6.1028125 1.195625 6.1028125 0.375 5.1875 C-5.31554282 -0.05378944 -10.11799405 -0.29625563 -17.5859375 -0.10546875 C-18.38257813 -0.07066406 -19.17921875 -0.03585938 -20 0 C-20 -0.66 -20 -1.32 -20 -2 C-14.42161121 -4.78919439 -5.67121946 -1.89040649 0 0 Z " fill="#5977AB" transform="translate(744,125)"/>
<path d="M0 0 C1.15242188 0.00902344 2.30484375 0.01804687 3.4921875 0.02734375 C4.36101562 0.03894531 5.22984375 0.05054687 6.125 0.0625 C6.125 0.3925 6.125 0.7225 6.125 1.0625 C5.37734375 1.09988281 4.6296875 1.13726562 3.859375 1.17578125 C2.87453125 1.24152344 1.8896875 1.30726562 0.875 1.375 C-0.09953125 1.43300781 -1.0740625 1.49101563 -2.078125 1.55078125 C-4.92932064 1.85440346 -4.92932064 1.85440346 -6.96875 3.65625 C-8.875 5.0625 -8.875 5.0625 -11.015625 4.91796875 C-12.96875 4.29947917 -14.921875 3.68098958 -16.875 3.0625 C-11.55785587 -0.00508315 -6.01619188 -0.06138971 0 0 Z " fill="#5E7FB0" transform="translate(156.875,31.9375)"/>
<path d="M0 0 C0.33 0.66 0.66 1.32 1 2 C-0.38658979 3.15700194 -1.78472441 4.30017623 -3.1875 5.4375 C-3.96480469 6.07558594 -4.74210938 6.71367188 -5.54296875 7.37109375 C-8.10825071 9.07176557 -9.97328271 9.61830031 -13 10 C-9.63843559 4.8845759 -5.32405622 2.6734043 0 0 Z " fill="#597DAE" transform="translate(555,107)"/>
<path d="M0 0 C0.33 0 0.66 0 1 0 C0.98839844 0.66386719 0.97679687 1.32773438 0.96484375 2.01171875 C0.88383905 7.50978033 0.88383905 7.50978033 1.625 12.9375 C2 15 2 15 0 18 C-0.66 18 -1.32 18 -2 18 C-1.85860519 15.74971671 -1.71171997 13.49977794 -1.5625 11.25 C-1.48128906 9.99703125 -1.40007813 8.7440625 -1.31640625 7.453125 C-1.07484478 4.81682447 -0.75716066 2.51962706 0 0 Z " fill="#5676B1" transform="translate(46,134)"/>
<path d="M0 0 C3.83520308 3.28731693 6.32465344 7.25147171 8 12 C7.67 12.66 7.34 13.32 7 14 C5.84962529 12.3990869 4.70485184 10.79414775 3.5625 9.1875 C2.92441406 8.29417969 2.28632812 7.40085938 1.62890625 6.48046875 C0 4 0 4 -1 1 C-0.67 0.67 -0.34 0.34 0 0 Z " fill="#5A7BB0" transform="translate(60,210)"/>
<path d="M0 0 C1.17219543 0.78345715 2.33763668 1.57702836 3.5 2.375 C4.47453125 3.03628906 4.47453125 3.03628906 5.46875 3.7109375 C5.9740625 4.13632813 6.479375 4.56171875 7 5 C7 5.66 7 6.32 7 7 C7.5775 7.2475 8.155 7.495 8.75 7.75 C11.3002997 9.16683317 13.01785701 10.87627537 15 13 C10.73439116 11.58581617 7.9940014 9.51748869 4.6875 6.5 C3.80449219 5.7059375 2.92148437 4.911875 2.01171875 4.09375 C0 2 0 2 0 0 Z " fill="#5E7CAC" transform="translate(433,184)"/>
<path d="M0 0 C0.33 0 0.66 0 1 0 C1.44214068 3.09498477 1.68802791 5.00505499 1 8 C-1.3491029 11.04971254 -4.05691965 13.5299147 -7 16 C-7.66 15.67 -8.32 15.34 -9 15 C-8.51789063 14.50371094 -8.03578125 14.00742188 -7.5390625 13.49609375 C-3.46037634 9.10942517 -1.10854041 5.91221552 0 0 Z " fill="#5D7BAB" transform="translate(422,116)"/>
<path d="M0 0 C0 0.33 0 0.66 0 1 C-1.17755859 1.07347656 -1.17755859 1.07347656 -2.37890625 1.1484375 C-8.19022303 1.5620036 -13.478943 2.11782148 -19 4 C-18.67 3.01 -18.34 2.02 -18 1 C-12.11585767 -1.57431227 -6.1677468 -0.97900743 0 0 Z " fill="#5979B2" transform="translate(582,123)"/>
<path d="M0 0 C0 0.66 0 1.32 0 2 C3.63 2.66 7.26 3.32 11 4 C11 4.33 11 4.66 11 5 C5.5610835 5.21755666 1.12919186 5.10428384 -4 3 C-4 2.34 -4 1.68 -4 1 C-2 0 -2 0 0 0 Z " fill="#587BAE" transform="translate(460,198)"/>
<path d="M0 0 C0.99 0.33 1.98 0.66 3 1 C1.68 3.97 0.36 6.94 -1 10 C-1.33 9.34 -1.66 8.68 -2 8 C-2.66 7.67 -3.32 7.34 -4 7 C-3.39816251 4.97954558 -2.72693904 2.97888961 -2 1 C-1.34 0.67 -0.68 0.34 0 0 Z " fill="#5A7DB4" transform="translate(654,130)"/>
<path d="M0 0 C1.485 0.99 1.485 0.99 3 2 C3 2.66 3 3.32 3 4 C3.66 4 4.32 4 5 4 C6.38938077 5.96147874 7.7260411 7.96166576 9 10 C8.67 10.66 8.34 11.32 8 12 C6.79557292 10.50260417 5.59114583 9.00520833 4.38671875 7.5078125 C2.87729455 5.74707893 2.87729455 5.74707893 0 4 C0 2.68 0 1.36 0 0 Z " fill="#5D7DA8" transform="translate(758,113)"/>
<path d="M0 0 C3.3503698 0.57764997 4.68233772 1.58576846 7 4 C9.09989652 5.17574711 9.09989652 5.17574711 11 6 C11 6.66 11 7.32 11 8 C6.40378078 6.5129879 3.53027653 4.20187872 0 1 C0 0.67 0 0.34 0 0 Z " fill="#5D7AAE" transform="translate(90,247)"/>
<path d="M0 0 C0.66 1.32 1.32 2.64 2 4 C1.29488281 3.83628906 0.58976563 3.67257813 -0.13671875 3.50390625 C-3.09658688 2.98300176 -5.81061273 2.90133268 -8.8125 2.9375 C-9.78832031 2.94652344 -10.76414062 2.95554687 -11.76953125 2.96484375 C-12.50558594 2.97644531 -13.24164062 2.98804687 -14 3 C-14 2.34 -14 1.68 -14 1 C-9.38 0.67 -4.76 0.34 0 0 Z " fill="#5C7CB3" transform="translate(679,122)"/>
<path d="M0 0 C3.11197356 1.49835764 6.08835016 3.13977927 9 5 C9 5.33 9 5.66 9 6 C6.125 6.125 6.125 6.125 3 6 C2.34 5.34 1.68 4.68 1 4 C1.33 3.34 1.66 2.68 2 2 C1.34 2 0.68 2 0 2 C0 1.34 0 0.68 0 0 Z " fill="#5A7DAC" transform="translate(228,49)"/>
<path d="M0 0 C0.66 0.33 1.32 0.66 2 1 C-1.3 4.3 -4.6 7.6 -8 11 C-8 7.45459812 -7.40614728 6.93992636 -5.125 4.375 C-4.59132812 3.76398438 -4.05765625 3.15296875 -3.5078125 2.5234375 C-2 1 -2 1 0 0 Z " fill="#597BA7" transform="translate(256,232)"/>
<path d="M0 0 C0.66 0 1.32 0 2 0 C0.6302836 3.99500618 -1.25722422 6.80009492 -4 10 C-4 7.69 -4 5.38 -4 3 C-3.34 3 -2.68 3 -2 3 C-1.34 2.01 -0.68 1.02 0 0 Z " fill="#5879AE" transform="translate(272,208)"/>
<path d="M0 0 C0.95465783 2.16967689 1.14401212 3.56328793 0.3984375 5.82421875 C-0.35870385 7.5684743 -1.17609198 9.28627131 -2 11 C-2.33 11 -2.66 11 -3 11 C-3 7.66666667 -3 4.33333333 -3 1 C-2.34 1 -1.68 1 -1 1 C-0.67 0.67 -0.34 0.34 0 0 Z " fill="#587AAB" transform="translate(279,193)"/>
<path d="M0 0 C3.80635497 3.20760251 7.54563567 6.40746109 11 10 C7.6989701 9.40114059 5.78574977 8.30314403 3.25 6.125 C2.63640625 5.61195313 2.0228125 5.09890625 1.390625 4.5703125 C0 3 0 3 0 0 Z " fill="#5978A9" transform="translate(202,166)"/>
<path d="M0 0 C1.921875 0.359375 1.921875 0.359375 4 1 C5.87679987 4.37823976 6.21849583 7.17632299 6 11 C4.41028035 8.61542052 3.13258407 6.3695876 1.875 3.8125 C1.52179688 3.09707031 1.16859375 2.38164062 0.8046875 1.64453125 C0.53914063 1.10183594 0.27359375 0.55914062 0 0 Z " fill="#5D7AA7" transform="translate(495,135)"/>
<path d="M0 0 C2.31 0.66 4.62 1.32 7 2 C6.67 2.99 6.34 3.98 6 5 C3.0625 4.625 3.0625 4.625 0 4 C-0.33 3.34 -0.66 2.68 -1 2 C-0.67 1.34 -0.34 0.68 0 0 Z " fill="#4B79C3" transform="translate(587,103)"/>
<path d="M0 0 C4.43458973 1.3937282 6.87378374 3.60582235 10 7 C6.65580848 7 5.93159679 6.52480606 3.3125 4.625 C2.68988281 4.18414062 2.06726563 3.74328125 1.42578125 3.2890625 C0.95527344 2.86367187 0.48476562 2.43828125 0 2 C0 1.34 0 0.68 0 0 Z " fill="#5A75AD" transform="translate(224,184)"/>
<path d="M0 0 C0 0.33 0 0.66 0 1 C-6.0546875 1.1953125 -6.0546875 1.1953125 -8 1 C-8.66 0.34 -9.32 -0.32 -10 -1 C-5.92224809 -1.9267618 -3.57818963 -2.33958553 0 0 Z " fill="#5B7BB2" transform="translate(351,202)"/>
<path d="M0 0 C3.08089673 2.77280706 4.68775452 5.06326356 6 9 C4.68 8.67 3.36 8.34 2 8 C1.34 5.36 0.68 2.72 0 0 Z " fill="#587AB0" transform="translate(265,84)"/>
<path d="M0 0 C0.99 0 1.98 0 3 0 C2.67 2.31 2.34 4.62 2 7 C1.67 6.34 1.34 5.68 1 5 C0.01 4.67 -0.98 4.34 -2 4 C-1.01 3.34 -0.02 2.68 1 2 C0.34 1.67 -0.32 1.34 -1 1 C-0.67 0.67 -0.34 0.34 0 0 Z " fill="#4062CA" transform="translate(285,151)"/>
<path d="M0 0 C0.66 0.33 1.32 0.66 2 1 C-2.455 3.97 -2.455 3.97 -7 7 C-7 6.01 -7 5.02 -7 4 C-1.7265625 0.77734375 -1.7265625 0.77734375 0 0 Z " fill="#577BAB" transform="translate(225,120)"/>
<path d="M0 0 C5.75 1.75 5.75 1.75 8 4 C6.02 4 4.04 4 2 4 C1.34 2.68 0.68 1.36 0 0 Z " fill="#5C7CB1" transform="translate(744,105)"/>
</svg>
